<svg width="300" height="240" viewBox="0 0 300 240" fill="none" xmlns="http://www.w3.org/2000/svg">
<path fill-rule="evenodd" clip-rule="evenodd" d="M75.5999 160.8H184.8C185.418 160.8 186.02 160.733 186.6 160.607C187.18 160.733 187.782 160.8 188.4 160.8H250.8C255.439 160.8 259.2 157.039 259.2 152.4C259.2 147.761 255.439 144 250.8 144H243.6C238.961 144 235.2 140.239 235.2 135.6C235.2 130.961 238.961 127.2 243.6 127.2H266.4C271.039 127.2 274.8 123.439 274.8 118.8C274.8 114.161 271.039 110.4 266.4 110.4H240C244.639 110.4 248.4 106.639 248.4 102C248.4 97.3606 244.639 93.5998 240 93.5998H163.2C167.839 93.5998 171.6 89.839 171.6 85.1998C171.6 80.5606 167.839 76.7998 163.2 76.7998H94.7999C90.1607 76.7998 86.3999 80.5606 86.3999 85.1998C86.3999 89.839 90.1607 93.5998 94.7999 93.5998H46.7999C42.1607 93.5998 38.3999 97.3606 38.3999 102C38.3999 106.639 42.1607 110.4 46.7999 110.4H76.7999C81.4391 110.4 85.1999 114.161 85.1999 118.8C85.1999 123.439 81.4391 127.2 76.7999 127.2H28.7999C24.1607 127.2 20.3999 130.961 20.3999 135.6C20.3999 140.239 24.1607 144 28.7999 144H75.5999C70.9607 144 67.1999 147.761 67.1999 152.4C67.1999 157.039 70.9607 160.8 75.5999 160.8ZM271.2 160.8C275.839 160.8 279.6 157.039 279.6 152.4C279.6 147.761 275.839 144 271.2 144C266.561 144 262.8 147.761 262.8 152.4C262.8 157.039 266.561 160.8 271.2 160.8Z" fill="#E8F0FF"/>
<path fill-rule="evenodd" clip-rule="evenodd" d="M202.292 151.29C199.2 153.6 196.185 155.771 192.773 157.648L192.97 174.548C192.986 175.874 191.924 176.961 190.599 176.976C190.06 176.982 189.534 176.807 189.107 176.478L173.912 164.787C168.216 166.099 162.208 166.8 156 166.8C119.549 166.8 90 142.623 90 112.8C90 82.9764 119.549 58.7998 156 58.7998C192.451 58.7998 222 82.9764 222 112.8C222 121.054 219.736 128.876 215.689 135.873C214.943 137.163 214.136 138.425 213.271 139.657C213.271 139.657 211.581 142.2 208.2 145.8C204.819 149.4 202.292 151.29 202.292 151.29Z" fill="white"/>
<path fill-rule="evenodd" clip-rule="evenodd" d="M202.292 151.29C199.2 153.6 196.185 155.771 192.773 157.648L192.97 174.548C192.986 175.874 191.924 176.961 190.599 176.976C190.06 176.982 189.534 176.807 189.107 176.478L173.912 164.787C168.216 166.099 162.208 166.8 156 166.8C119.549 166.8 90 142.623 90 112.8C90 82.9764 119.549 58.7998 156 58.7998C192.451 58.7998 222 82.9764 222 112.8C222 121.054 219.736 128.876 215.689 135.873C214.943 137.163 214.136 138.425 213.271 139.657C213.271 139.657 211.581 142.2 208.2 145.8C204.819 149.4 202.292 151.29 202.292 151.29Z" stroke="#1F64E7" stroke-width="2.5" stroke-linecap="round"/>
<path fill-rule="evenodd" clip-rule="evenodd" d="M195.423 97.9072C201.789 97.9072 207.919 97.1482 213.661 95.744C215.952 100.964 217.2 106.588 217.2 112.449C217.2 120.052 215.101 127.256 211.348 133.7C210.656 134.889 209.907 136.051 209.106 137.186C207.84 138.977 206.937 140.242 206.142 141.256C204.262 143.656 202.985 144.653 198.925 147.9C196.217 150.066 193.263 152.029 190.098 153.757L190.281 169.323C190.296 170.544 190.667 172.785 189.438 172.8C188.938 172.805 187.095 171.404 186.699 171.101L174.447 160.16C169.166 161.367 161.756 162.186 156 162.186C122.2 162.186 94.7998 139.918 94.7998 112.449C94.7998 89.9531 113.176 70.9456 138.394 64.7998C144.998 83.8492 168.028 97.9072 195.423 97.9072ZM132.349 105.778C128.383 105.778 125.168 109.014 125.168 113.005C125.168 116.997 128.383 120.233 132.349 120.233C136.315 120.233 139.53 116.997 139.53 113.005C139.53 109.014 136.315 105.778 132.349 105.778ZM155.089 105.778C151.123 105.778 147.908 109.014 147.908 113.005C147.908 116.997 151.123 120.233 155.089 120.233C159.055 120.233 162.27 116.997 162.27 113.005C162.27 109.014 159.055 105.778 155.089 105.778ZM177.829 105.778C173.863 105.778 170.648 109.014 170.648 113.005C170.648 116.997 173.863 120.233 177.829 120.233C181.795 120.233 185.011 116.997 185.011 113.005C185.011 109.014 181.795 105.778 177.829 105.778Z" fill="#E8F0FE"/>
<path fill-rule="evenodd" clip-rule="evenodd" d="M132 105.6C135.976 105.6 139.2 108.823 139.2 112.8C139.2 116.776 135.976 120 132 120C128.023 120 124.8 116.776 124.8 112.8C124.8 108.823 128.023 105.6 132 105.6ZM154.8 105.6C158.776 105.6 162 108.823 162 112.8C162 116.776 158.776 120 154.8 120C150.823 120 147.6 116.776 147.6 112.8C147.6 108.823 150.823 105.6 154.8 105.6ZM177.6 105.6C181.576 105.6 184.8 108.823 184.8 112.8C184.8 116.776 181.576 120 177.6 120C173.623 120 170.4 116.776 170.4 112.8C170.4 108.823 173.623 105.6 177.6 105.6Z" fill="white" stroke="#1F64E7" stroke-width="2.5"/>
<path d="M107.594 95.1738C106.505 97.0121 105.56 98.92 104.774 100.887" stroke="#75A4FE" stroke-width="2.5" stroke-linecap="round"/>
<path d="M129.626 75.6875C121.763 79.4403 115.125 84.7489 110.327 91.104" stroke="#75A4FE" stroke-width="2.5" stroke-linecap="round"/>
</svg>
