<svg width="300" height="240" viewBox="0 0 300 240" fill="none" xmlns="http://www.w3.org/2000/svg">
<path fill-rule="evenodd" clip-rule="evenodd" d="M75.5999 160.8H184.8C185.418 160.8 186.02 160.733 186.6 160.607C187.18 160.733 187.782 160.8 188.4 160.8H250.8C255.439 160.8 259.2 157.039 259.2 152.4C259.2 147.761 255.439 144 250.8 144H243.6C238.961 144 235.2 140.239 235.2 135.6C235.2 130.961 238.961 127.2 243.6 127.2H266.4C271.039 127.2 274.8 123.439 274.8 118.8C274.8 114.161 271.039 110.4 266.4 110.4H240C244.639 110.4 248.4 106.639 248.4 102C248.4 97.3606 244.639 93.5998 240 93.5998H163.2C167.839 93.5998 171.6 89.839 171.6 85.1998C171.6 80.5606 167.839 76.7998 163.2 76.7998H94.7999C90.1607 76.7998 86.3999 80.5606 86.3999 85.1998C86.3999 89.839 90.1607 93.5998 94.7999 93.5998H46.7999C42.1607 93.5998 38.3999 97.3606 38.3999 102C38.3999 106.639 42.1607 110.4 46.7999 110.4H76.7999C81.4391 110.4 85.1999 114.161 85.1999 118.8C85.1999 123.439 81.4391 127.2 76.7999 127.2H28.7999C24.1607 127.2 20.3999 130.961 20.3999 135.6C20.3999 140.239 24.1607 144 28.7999 144H75.5999C70.9607 144 67.1999 147.761 67.1999 152.4C67.1999 157.039 70.9607 160.8 75.5999 160.8ZM271.2 160.8C275.839 160.8 279.6 157.039 279.6 152.4C279.6 147.761 275.839 144 271.2 144C266.561 144 262.8 147.761 262.8 152.4C262.8 157.039 266.561 160.8 271.2 160.8Z" fill="#F3F7FF"/>
<path d="M207 54V61.2" stroke="#75A4FE" stroke-width="2.5" stroke-linecap="round" stroke-linejoin="round"/>
<path d="M207 70.7998V77.9998" stroke="#75A4FE" stroke-width="2.5" stroke-linecap="round" stroke-linejoin="round"/>
<path d="M195 65.9996H202.2" stroke="#75A4FE" stroke-width="2.5" stroke-linecap="round" stroke-linejoin="round"/>
<path d="M211.8 65.9996H219" stroke="#75A4FE" stroke-width="2.5" stroke-linecap="round" stroke-linejoin="round"/>
<path d="M107.4 177.6V182.4" stroke="#75A4FE" stroke-width="2.5" stroke-linecap="round" stroke-linejoin="round"/>
<path d="M107.4 192V196.8" stroke="#75A4FE" stroke-width="2.5" stroke-linecap="round" stroke-linejoin="round"/>
<path d="M97.7998 187.2H102.6" stroke="#75A4FE" stroke-width="2.5" stroke-linecap="round" stroke-linejoin="round"/>
<path d="M112.2 187.2H117" stroke="#75A4FE" stroke-width="2.5" stroke-linecap="round" stroke-linejoin="round"/>
<path fill-rule="evenodd" clip-rule="evenodd" d="M192.854 157.352C194.522 155.308 196.022 153.171 197.353 150.959C200.281 146.093 202.391 140.866 203.681 135.477C204.985 130.027 205.45 124.411 205.073 118.836C204.744 113.971 203.773 109.137 202.158 104.472C200.556 99.8435 198.321 95.381 195.45 91.2182C193.739 88.7377 191.803 86.3637 189.64 84.1245C186.465 80.837 182.983 78.0265 179.282 75.6946C175.306 73.1891 171.079 71.2363 166.712 69.8382C161.242 68.0874 155.553 67.2066 149.863 67.2002C145.436 67.1953 141.008 67.7196 136.683 68.7752C131.813 69.9636 127.074 71.8253 122.612 74.3633C118.689 76.5943 114.98 79.3478 111.585 82.6258C107.319 86.7452 103.863 91.3888 101.221 96.3585C98.6346 101.224 96.8277 106.402 95.8037 111.707C94.7487 117.172 94.5245 122.771 95.1345 128.302C95.9252 135.469 98.117 142.521 101.717 149.014C104.021 153.169 106.901 157.095 110.359 160.676C115.85 166.361 122.26 170.619 129.125 173.443C137.474 176.876 146.496 178.187 155.357 177.36C162.794 176.666 170.117 174.465 176.833 170.748" fill="white"/>
<path d="M192.854 157.352C194.522 155.308 196.022 153.171 197.353 150.959C200.281 146.093 202.391 140.866 203.681 135.477C204.985 130.027 205.45 124.411 205.073 118.836C204.744 113.971 203.773 109.137 202.158 104.472C200.556 99.8435 198.321 95.381 195.45 91.2182C193.739 88.7377 191.803 86.3637 189.64 84.1245C186.465 80.837 182.983 78.0265 179.282 75.6946C175.306 73.1891 171.079 71.2363 166.712 69.8382C161.242 68.0874 155.553 67.2066 149.863 67.2002C145.436 67.1953 141.008 67.7196 136.683 68.7752C131.813 69.9636 127.074 71.8253 122.612 74.3633C118.689 76.5943 114.98 79.3478 111.585 82.6258C107.319 86.7452 103.863 91.3888 101.221 96.3585C98.6346 101.224 96.8277 106.402 95.8037 111.707C94.7487 117.172 94.5245 122.771 95.1345 128.302C95.9252 135.47 98.117 142.521 101.717 149.014C104.021 153.169 106.901 157.095 110.359 160.676C115.85 166.361 122.26 170.619 129.125 173.443C137.474 176.876 146.496 178.187 155.357 177.36C162.794 176.666 170.117 174.465 176.833 170.748" stroke="#1F64E7" stroke-width="2.5" stroke-linecap="round" stroke-linejoin="round"/>
<path fill-rule="evenodd" clip-rule="evenodd" d="M180.842 168.454C184.329 166.21 187.429 163.41 189.446 161.15L180.842 168.454Z" fill="white"/>
<path d="M180.842 168.454C184.329 166.21 187.429 163.41 189.446 161.15" stroke="#1F64E7" stroke-width="2.5" stroke-linecap="round"/>
<path d="M200.4 125.54C200.057 125.546 199.713 125.55 199.368 125.55C169.064 125.55 144.25 101.923 142.171 72C118.05 75.8047 99.6001 96.7831 99.6001 122.092C99.6001 150.097 122.191 172.8 150.058 172.8C176.771 172.8 198.636 151.937 200.4 125.54Z" fill="#E8F0FE"/>
<path fill-rule="evenodd" clip-rule="evenodd" d="M130.828 120.447C129.36 119.092 127.083 119.196 125.742 120.68C124.401 122.163 124.504 124.465 125.972 125.821L142.915 141.466C144.97 143.364 148.158 143.218 150.035 141.141C150.113 141.053 150.113 141.053 150.189 140.962L174.368 111.566C175.639 110.02 175.43 107.726 173.901 106.441C172.373 105.156 170.103 105.367 168.832 106.912L146.1 134.55L130.828 120.447Z" fill="white" stroke="#1F64E7" stroke-width="2.5" stroke-linecap="round"/>
<path fill-rule="evenodd" clip-rule="evenodd" d="M132.989 77.2957C130.648 78.1737 128.362 79.2405 126.154 80.4967C122.722 82.4487 119.478 84.8579 116.508 87.7259C115.29 88.9015 114.148 90.126 113.082 91.3932M109.782 95.8054C108.934 97.0868 108.154 98.4004 107.441 99.7412C106.915 100.731 106.425 101.736 105.973 102.754" fill="white"/>
<path d="M133.428 78.4661C134.074 78.2236 134.401 77.503 134.159 76.8566C133.917 76.2103 133.196 75.8829 132.55 76.1254L133.428 78.4661ZM126.154 80.4967L126.772 81.5832L126.154 80.4967ZM116.508 87.7259L115.64 86.8267L116.508 87.7259ZM112.126 90.5884C111.681 91.1166 111.749 91.9051 112.277 92.3496C112.805 92.7942 113.594 92.7263 114.038 92.1981L112.126 90.5884ZM110.825 96.4952C111.206 95.9195 111.048 95.144 110.472 94.763C109.896 94.382 109.121 94.5399 108.74 95.1156L110.825 96.4952ZM107.441 99.7412L108.545 100.328L108.545 100.328L107.441 99.7412ZM104.83 102.246C104.55 102.877 104.834 103.616 105.465 103.896C106.096 104.177 106.834 103.893 107.115 103.262L104.83 102.246ZM132.55 76.1254C130.148 77.0263 127.802 78.1211 125.536 79.4102L126.772 81.5832C128.923 80.36 131.149 79.3211 133.428 78.4661L132.55 76.1254ZM125.536 79.4102C122.014 81.4134 118.685 83.8854 115.64 86.8267L117.376 88.6251C120.27 85.8303 123.431 83.4839 126.772 81.5832L125.536 79.4102ZM115.64 86.8267C114.391 88.0323 113.22 89.2883 112.126 90.5884L114.038 92.1981C115.077 90.9637 116.19 89.7708 117.376 88.6251L115.64 86.8267ZM108.74 95.1156C107.87 96.4305 107.069 97.7786 106.337 99.1544L108.545 100.328C109.239 99.0223 109.999 97.7431 110.825 96.4952L108.74 95.1156ZM106.337 99.1544C105.797 100.171 105.295 101.202 104.83 102.246L107.115 103.262C107.556 102.271 108.032 101.292 108.545 100.328L106.337 99.1544Z" fill="#75A4FE"/>
</svg>
