<svg width="120" height="117" viewBox="0 0 120 117" fill="none" xmlns="http://www.w3.org/2000/svg">
<g clip-path="url(#clip0_5617_53050)">
<path d="M101.858 25.1204C99.9329 20.1111 96.975 15.5596 93.1753 11.7597C89.3755 7.95981 84.8184 4.99594 79.798 3.05938C74.6604 1.02008 68.9392 0.000437881 62.6346 0.000437881C56.814 -0.0434881 51.0312 0.936011 45.552 2.89391C40.3966 4.68778 35.6827 7.55274 31.7225 11.299C27.7622 15.0452 24.6462 19.5872 22.5808 24.624C20.3157 29.9101 19.1831 35.864 19.1831 42.4857V117H39.0844V75.8568C41.0742 78.391 44.1681 80.5943 48.3662 82.4666C52.5643 84.3389 57.6511 85.2751 63.6265 85.2751C69.2994 85.3304 74.9295 84.2916 80.2064 82.2162C85.1396 80.2807 89.6049 77.3253 93.3079 73.5447C97.0431 69.6506 99.9445 65.0403 101.836 59.9941C103.945 54.3989 104.993 48.4622 104.928 42.4857C104.928 36.0876 103.905 30.2992 101.858 25.1204Z" fill="#00008B"/>
<path d="M64.3761 12.6875L64.7173 19.7892C64.8471 22.5711 65.5986 25.2889 66.9167 27.7445C68.2349 30.2002 70.0866 32.3317 72.3366 33.9836C74.5867 35.6355 77.1785 36.7661 79.9229 37.2931C82.6673 37.82 85.4952 37.7299 88.2002 37.0293L95.5027 35.151L89.5332 37.2887C86.8255 38.253 84.3761 39.8239 82.3738 41.8802C80.3715 43.9366 78.8697 46.4235 77.9842 49.1494C77.0988 51.8753 76.8532 54.7674 77.2665 57.6028C77.6798 60.4381 78.7409 63.1411 80.3681 65.5034L85.3052 72.5828L78.5458 64.3675C76.8076 62.262 74.6287 60.5603 72.1615 59.3814C69.6943 58.2026 66.9985 57.575 64.2625 57.5426C61.5265 57.5103 58.8164 58.0739 56.3218 59.194C53.8272 60.3142 51.6084 61.9638 49.8205 64.0276L42.3699 72.5828L47.2442 65.9059C48.9628 63.5418 50.1028 60.8101 50.5731 57.9288C51.0433 55.0475 50.8308 52.0966 49.9525 49.3118C49.0742 46.5269 47.5545 43.9853 45.5147 41.8899C43.4749 39.7946 40.9716 38.2036 38.2047 37.244L32.1724 35.1063L40.763 37.244C43.4616 37.9194 46.2771 37.989 49.006 37.4478C51.7349 36.9066 54.309 35.768 56.5424 34.1145C58.7757 32.4609 60.6124 30.3336 61.9199 27.8864C63.2273 25.4391 63.9728 22.733 64.1024 19.9637L64.3761 12.6875Z" fill="#FDB640"/>
</g>
<defs>
<clipPath id="clip0_5617_53050">
<rect width="120" height="117" fill="white"/>
</clipPath>
</defs>
</svg>
